# xmcd
#
# Track frame offsets:
#	150
#	15862
#	31851
#	50539
#	65208
#	84401
#	94785
#	109176
#	130756
#	164713
#	180025
#	195358
#	212503
#	228268
#	244363
#	271396
#	288445
#	304067
#	321920
#
# Disc length: 4447 seconds
# Revision: 0
# Processed by: cddbd v1.5.2PL0 Copyright (c) Steve Scherf et al.
# Submitted via: dBpowerAMP V12.0
#
DISCID=fe115d13
DTITLE=Various Artist - BluesFest 2010
DYEAR=2010
DGENRE=Blues
TTITLE0=10CC - The Things We Do For LOve
TTITLE1=Troy Cassar-Daley - I Love This Place
TTITLE2=Supertramp - Give a Little Bit
TTITLE3=Jimmy Barnes - Shake Rattle and Roll
TTITLE4=The Dynamites (Featuring Charles Walker) - Do the Right Thing
TTITLE5=Buddy Guy - First Time I Met the Blues
TTITLE6=Josh White Jr - Evil Hearted Man
TTITLE7=Taj Mahal;New Orleans Social Club - Hello Josephine
TTITLE8=Umphrey's McGee - Cemetry Walk
TTITLE9=Dr John - I Don't Wanna Know
TTITLE10=Ross Wilson - Bed Of Nails
TTITLE11=Renee Geyer - Heading In the Right Direction
TTITLE12=Galatic;Irma Thomas - Heart Of Steel
TTITLE13=Bela Fleck and the Flectones - Sex In a Pan
TTITLE14=Brian Auger's Oblivion Express - Freddie's Flight
TTITLE15=Ozomatli - After Party
TTITLE16=Gogol Bordello - Start Wearing Purple
TTITLE17=Blue King Brown - Water
TTITLE18=Joe Robinson - Strutting It
EXTD=
EXTT0=
EXTT1=
EXTT2=
EXTT3=
EXTT4=
EXTT5=
EXTT6=
EXTT7=
EXTT8=
EXTT9=
EXTT10=
EXTT11=
EXTT12=
EXTT13=
EXTT14=
EXTT15=
EXTT16=
EXTT17=
EXTT18=
PLAYORDER=
